<mxfile host="app.diagrams.net" modified="2023-10-08T23:36:31.839Z" agent="Mozilla/5.0 (Windows NT 10.0; Win64; x64) AppleWebKit/537.36 (KHTML, like Gecko) Chrome/117.0.0.0 Safari/537.36" etag="I6XJgo3L-bmWH7GRjHG2" version="21.8.2" type="device">
  <diagram id="C5RBs43oDa-KdzZeNtuy" name="Page-1">
    <mxGraphModel dx="1760" dy="1044" grid="1" gridSize="10" guides="1" tooltips="1" connect="1" arrows="1" fold="1" page="1" pageScale="1" pageWidth="827" pageHeight="1169" math="0" shadow="0">
      <root>
        <mxCell id="WIyWlLk6GJQsqaUBKTNV-0" />
        <mxCell id="WIyWlLk6GJQsqaUBKTNV-1" parent="WIyWlLk6GJQsqaUBKTNV-0" />
        <mxCell id="re-14CfC1s3Y96KnfMVv-6" style="edgeStyle=orthogonalEdgeStyle;rounded=0;orthogonalLoop=1;jettySize=auto;html=1;exitX=1;exitY=0.5;exitDx=0;exitDy=0;entryX=0;entryY=0.5;entryDx=0;entryDy=0;endArrow=none;endFill=0;" edge="1" parent="WIyWlLk6GJQsqaUBKTNV-1" source="re-14CfC1s3Y96KnfMVv-0" target="re-14CfC1s3Y96KnfMVv-4">
          <mxGeometry relative="1" as="geometry" />
        </mxCell>
        <mxCell id="re-14CfC1s3Y96KnfMVv-41" style="edgeStyle=orthogonalEdgeStyle;rounded=0;orthogonalLoop=1;jettySize=auto;html=1;entryX=0;entryY=0.5;entryDx=0;entryDy=0;endArrow=none;endFill=0;" edge="1" parent="WIyWlLk6GJQsqaUBKTNV-1" source="re-14CfC1s3Y96KnfMVv-0" target="re-14CfC1s3Y96KnfMVv-36">
          <mxGeometry relative="1" as="geometry">
            <mxPoint x="180" y="285" as="sourcePoint" />
            <mxPoint x="365" y="190" as="targetPoint" />
            <Array as="points">
              <mxPoint x="220" y="216" />
            </Array>
          </mxGeometry>
        </mxCell>
        <mxCell id="re-14CfC1s3Y96KnfMVv-0" value="" style="rounded=0;whiteSpace=wrap;html=1;" vertex="1" parent="WIyWlLk6GJQsqaUBKTNV-1">
          <mxGeometry x="170" y="305" width="100" height="40" as="geometry" />
        </mxCell>
        <mxCell id="re-14CfC1s3Y96KnfMVv-1" value="&lt;font style=&quot;font-size: 14px;&quot;&gt;Aluno&lt;/font&gt;" style="text;html=1;strokeColor=none;fillColor=none;align=center;verticalAlign=middle;whiteSpace=wrap;rounded=0;" vertex="1" parent="WIyWlLk6GJQsqaUBKTNV-1">
          <mxGeometry x="190" y="310" width="60" height="30" as="geometry" />
        </mxCell>
        <mxCell id="re-14CfC1s3Y96KnfMVv-13" style="edgeStyle=orthogonalEdgeStyle;rounded=0;orthogonalLoop=1;jettySize=auto;html=1;exitX=0.5;exitY=1;exitDx=0;exitDy=0;endArrow=none;endFill=0;" edge="1" parent="WIyWlLk6GJQsqaUBKTNV-1" source="re-14CfC1s3Y96KnfMVv-2" target="re-14CfC1s3Y96KnfMVv-10">
          <mxGeometry relative="1" as="geometry" />
        </mxCell>
        <mxCell id="re-14CfC1s3Y96KnfMVv-2" value="" style="rounded=0;whiteSpace=wrap;html=1;" vertex="1" parent="WIyWlLk6GJQsqaUBKTNV-1">
          <mxGeometry x="530" y="305" width="100" height="40" as="geometry" />
        </mxCell>
        <mxCell id="re-14CfC1s3Y96KnfMVv-3" value="&lt;font style=&quot;font-size: 14px;&quot;&gt;Instituição&lt;/font&gt;" style="text;html=1;strokeColor=none;fillColor=none;align=center;verticalAlign=middle;whiteSpace=wrap;rounded=0;" vertex="1" parent="WIyWlLk6GJQsqaUBKTNV-1">
          <mxGeometry x="550" y="310" width="60" height="30" as="geometry" />
        </mxCell>
        <mxCell id="re-14CfC1s3Y96KnfMVv-4" value="" style="rhombus;whiteSpace=wrap;html=1;" vertex="1" parent="WIyWlLk6GJQsqaUBKTNV-1">
          <mxGeometry x="360" y="300" width="90" height="50" as="geometry" />
        </mxCell>
        <mxCell id="re-14CfC1s3Y96KnfMVv-5" value="Cadastra" style="text;html=1;strokeColor=none;fillColor=none;align=center;verticalAlign=middle;whiteSpace=wrap;rounded=0;" vertex="1" parent="WIyWlLk6GJQsqaUBKTNV-1">
          <mxGeometry x="375" y="310" width="60" height="30" as="geometry" />
        </mxCell>
        <mxCell id="re-14CfC1s3Y96KnfMVv-7" style="edgeStyle=orthogonalEdgeStyle;rounded=0;orthogonalLoop=1;jettySize=auto;html=1;entryX=1;entryY=0.5;entryDx=0;entryDy=0;endArrow=none;endFill=0;" edge="1" parent="WIyWlLk6GJQsqaUBKTNV-1" source="re-14CfC1s3Y96KnfMVv-2" target="re-14CfC1s3Y96KnfMVv-4">
          <mxGeometry relative="1" as="geometry">
            <mxPoint x="280" y="335" as="sourcePoint" />
            <mxPoint x="370" y="335" as="targetPoint" />
          </mxGeometry>
        </mxCell>
        <mxCell id="re-14CfC1s3Y96KnfMVv-8" value="(1,n)" style="text;html=1;strokeColor=none;fillColor=none;align=center;verticalAlign=middle;whiteSpace=wrap;rounded=0;" vertex="1" parent="WIyWlLk6GJQsqaUBKTNV-1">
          <mxGeometry x="270" y="305" width="40" height="20" as="geometry" />
        </mxCell>
        <mxCell id="re-14CfC1s3Y96KnfMVv-9" value="(1,1)" style="text;html=1;strokeColor=none;fillColor=none;align=center;verticalAlign=middle;whiteSpace=wrap;rounded=0;" vertex="1" parent="WIyWlLk6GJQsqaUBKTNV-1">
          <mxGeometry x="495" y="305" width="40" height="20" as="geometry" />
        </mxCell>
        <mxCell id="re-14CfC1s3Y96KnfMVv-10" value="" style="rhombus;whiteSpace=wrap;html=1;" vertex="1" parent="WIyWlLk6GJQsqaUBKTNV-1">
          <mxGeometry x="535" y="415" width="90" height="50" as="geometry" />
        </mxCell>
        <mxCell id="re-14CfC1s3Y96KnfMVv-11" value="Possui" style="text;html=1;strokeColor=none;fillColor=none;align=center;verticalAlign=middle;whiteSpace=wrap;rounded=0;" vertex="1" parent="WIyWlLk6GJQsqaUBKTNV-1">
          <mxGeometry x="550" y="425" width="60" height="30" as="geometry" />
        </mxCell>
        <mxCell id="re-14CfC1s3Y96KnfMVv-17" style="edgeStyle=orthogonalEdgeStyle;rounded=0;orthogonalLoop=1;jettySize=auto;html=1;exitX=0.5;exitY=1;exitDx=0;exitDy=0;endArrow=none;endFill=0;" edge="1" parent="WIyWlLk6GJQsqaUBKTNV-1">
          <mxGeometry relative="1" as="geometry">
            <mxPoint x="579.58" y="535" as="targetPoint" />
            <mxPoint x="579.58" y="465" as="sourcePoint" />
            <Array as="points">
              <mxPoint x="579.58" y="500" />
              <mxPoint x="579.58" y="500" />
            </Array>
          </mxGeometry>
        </mxCell>
        <mxCell id="re-14CfC1s3Y96KnfMVv-18" value="" style="rounded=0;whiteSpace=wrap;html=1;" vertex="1" parent="WIyWlLk6GJQsqaUBKTNV-1">
          <mxGeometry x="530" y="535" width="100" height="40" as="geometry" />
        </mxCell>
        <mxCell id="re-14CfC1s3Y96KnfMVv-19" value="&lt;font style=&quot;font-size: 14px;&quot;&gt;Departamento&lt;/font&gt;" style="text;html=1;strokeColor=none;fillColor=none;align=center;verticalAlign=middle;whiteSpace=wrap;rounded=0;" vertex="1" parent="WIyWlLk6GJQsqaUBKTNV-1">
          <mxGeometry x="550" y="540" width="60" height="30" as="geometry" />
        </mxCell>
        <mxCell id="re-14CfC1s3Y96KnfMVv-20" style="edgeStyle=orthogonalEdgeStyle;rounded=0;orthogonalLoop=1;jettySize=auto;html=1;exitX=1;exitY=0.5;exitDx=0;exitDy=0;entryX=0;entryY=0.5;entryDx=0;entryDy=0;endArrow=none;endFill=0;" edge="1" parent="WIyWlLk6GJQsqaUBKTNV-1" source="re-14CfC1s3Y96KnfMVv-21" target="re-14CfC1s3Y96KnfMVv-23">
          <mxGeometry relative="1" as="geometry" />
        </mxCell>
        <mxCell id="re-14CfC1s3Y96KnfMVv-21" value="" style="rounded=0;whiteSpace=wrap;html=1;" vertex="1" parent="WIyWlLk6GJQsqaUBKTNV-1">
          <mxGeometry x="170" y="535" width="100" height="40" as="geometry" />
        </mxCell>
        <mxCell id="re-14CfC1s3Y96KnfMVv-22" value="&lt;font style=&quot;font-size: 14px;&quot;&gt;Professor&lt;/font&gt;" style="text;html=1;strokeColor=none;fillColor=none;align=center;verticalAlign=middle;whiteSpace=wrap;rounded=0;" vertex="1" parent="WIyWlLk6GJQsqaUBKTNV-1">
          <mxGeometry x="190" y="540" width="60" height="30" as="geometry" />
        </mxCell>
        <mxCell id="re-14CfC1s3Y96KnfMVv-23" value="" style="rhombus;whiteSpace=wrap;html=1;" vertex="1" parent="WIyWlLk6GJQsqaUBKTNV-1">
          <mxGeometry x="360" y="530" width="90" height="50" as="geometry" />
        </mxCell>
        <mxCell id="re-14CfC1s3Y96KnfMVv-24" value="Pertence" style="text;html=1;strokeColor=none;fillColor=none;align=center;verticalAlign=middle;whiteSpace=wrap;rounded=0;" vertex="1" parent="WIyWlLk6GJQsqaUBKTNV-1">
          <mxGeometry x="375" y="540" width="60" height="30" as="geometry" />
        </mxCell>
        <mxCell id="re-14CfC1s3Y96KnfMVv-25" style="edgeStyle=orthogonalEdgeStyle;rounded=0;orthogonalLoop=1;jettySize=auto;html=1;entryX=1;entryY=0.5;entryDx=0;entryDy=0;endArrow=none;endFill=0;" edge="1" parent="WIyWlLk6GJQsqaUBKTNV-1" target="re-14CfC1s3Y96KnfMVv-23">
          <mxGeometry relative="1" as="geometry">
            <mxPoint x="530" y="555" as="sourcePoint" />
            <mxPoint x="370" y="565" as="targetPoint" />
          </mxGeometry>
        </mxCell>
        <mxCell id="re-14CfC1s3Y96KnfMVv-26" value="(1,n)" style="text;html=1;strokeColor=none;fillColor=none;align=center;verticalAlign=middle;whiteSpace=wrap;rounded=0;" vertex="1" parent="WIyWlLk6GJQsqaUBKTNV-1">
          <mxGeometry x="270" y="535" width="40" height="20" as="geometry" />
        </mxCell>
        <mxCell id="re-14CfC1s3Y96KnfMVv-27" value="(1,1)" style="text;html=1;strokeColor=none;fillColor=none;align=center;verticalAlign=middle;whiteSpace=wrap;rounded=0;" vertex="1" parent="WIyWlLk6GJQsqaUBKTNV-1">
          <mxGeometry x="495" y="535" width="40" height="20" as="geometry" />
        </mxCell>
        <mxCell id="re-14CfC1s3Y96KnfMVv-28" value="(1,1)" style="text;html=1;strokeColor=none;fillColor=none;align=center;verticalAlign=middle;whiteSpace=wrap;rounded=0;" vertex="1" parent="WIyWlLk6GJQsqaUBKTNV-1">
          <mxGeometry x="580" y="345" width="40" height="20" as="geometry" />
        </mxCell>
        <mxCell id="re-14CfC1s3Y96KnfMVv-29" value="(1,n)" style="text;html=1;strokeColor=none;fillColor=none;align=center;verticalAlign=middle;whiteSpace=wrap;rounded=0;" vertex="1" parent="WIyWlLk6GJQsqaUBKTNV-1">
          <mxGeometry x="580" y="515" width="40" height="20" as="geometry" />
        </mxCell>
        <mxCell id="re-14CfC1s3Y96KnfMVv-30" style="edgeStyle=orthogonalEdgeStyle;rounded=0;orthogonalLoop=1;jettySize=auto;html=1;exitX=0.5;exitY=1;exitDx=0;exitDy=0;endArrow=none;endFill=0;" edge="1" parent="WIyWlLk6GJQsqaUBKTNV-1" target="re-14CfC1s3Y96KnfMVv-31">
          <mxGeometry relative="1" as="geometry">
            <mxPoint x="220" y="345" as="sourcePoint" />
          </mxGeometry>
        </mxCell>
        <mxCell id="re-14CfC1s3Y96KnfMVv-31" value="" style="rhombus;whiteSpace=wrap;html=1;" vertex="1" parent="WIyWlLk6GJQsqaUBKTNV-1">
          <mxGeometry x="175" y="415" width="90" height="50" as="geometry" />
        </mxCell>
        <mxCell id="re-14CfC1s3Y96KnfMVv-32" value="Recebe&lt;br&gt;moedas" style="text;html=1;strokeColor=none;fillColor=none;align=center;verticalAlign=middle;whiteSpace=wrap;rounded=0;" vertex="1" parent="WIyWlLk6GJQsqaUBKTNV-1">
          <mxGeometry x="190" y="425" width="60" height="30" as="geometry" />
        </mxCell>
        <mxCell id="re-14CfC1s3Y96KnfMVv-33" style="edgeStyle=orthogonalEdgeStyle;rounded=0;orthogonalLoop=1;jettySize=auto;html=1;exitX=0.5;exitY=1;exitDx=0;exitDy=0;endArrow=none;endFill=0;" edge="1" parent="WIyWlLk6GJQsqaUBKTNV-1">
          <mxGeometry relative="1" as="geometry">
            <mxPoint x="219.58000000000004" y="535" as="targetPoint" />
            <mxPoint x="219.58000000000004" y="465" as="sourcePoint" />
            <Array as="points">
              <mxPoint x="219.58000000000004" y="500" />
              <mxPoint x="219.58000000000004" y="500" />
            </Array>
          </mxGeometry>
        </mxCell>
        <mxCell id="re-14CfC1s3Y96KnfMVv-34" value="(1,n)" style="text;html=1;strokeColor=none;fillColor=none;align=center;verticalAlign=middle;whiteSpace=wrap;rounded=0;" vertex="1" parent="WIyWlLk6GJQsqaUBKTNV-1">
          <mxGeometry x="220" y="345" width="40" height="20" as="geometry" />
        </mxCell>
        <mxCell id="re-14CfC1s3Y96KnfMVv-35" value="(1,n)" style="text;html=1;strokeColor=none;fillColor=none;align=center;verticalAlign=middle;whiteSpace=wrap;rounded=0;" vertex="1" parent="WIyWlLk6GJQsqaUBKTNV-1">
          <mxGeometry x="220" y="515" width="40" height="20" as="geometry" />
        </mxCell>
        <mxCell id="re-14CfC1s3Y96KnfMVv-36" value="" style="rhombus;whiteSpace=wrap;html=1;" vertex="1" parent="WIyWlLk6GJQsqaUBKTNV-1">
          <mxGeometry x="300" y="191" width="90" height="50" as="geometry" />
        </mxCell>
        <mxCell id="re-14CfC1s3Y96KnfMVv-37" value="Compra" style="text;html=1;strokeColor=none;fillColor=none;align=center;verticalAlign=middle;whiteSpace=wrap;rounded=0;" vertex="1" parent="WIyWlLk6GJQsqaUBKTNV-1">
          <mxGeometry x="315" y="201" width="60" height="30" as="geometry" />
        </mxCell>
        <mxCell id="re-14CfC1s3Y96KnfMVv-42" value="(1,n)" style="text;html=1;strokeColor=none;fillColor=none;align=center;verticalAlign=middle;whiteSpace=wrap;rounded=0;" vertex="1" parent="WIyWlLk6GJQsqaUBKTNV-1">
          <mxGeometry x="220" y="285" width="40" height="20" as="geometry" />
        </mxCell>
        <mxCell id="re-14CfC1s3Y96KnfMVv-43" value="" style="rounded=0;whiteSpace=wrap;html=1;" vertex="1" parent="WIyWlLk6GJQsqaUBKTNV-1">
          <mxGeometry x="470" y="196" width="100" height="40" as="geometry" />
        </mxCell>
        <mxCell id="re-14CfC1s3Y96KnfMVv-44" value="&lt;font style=&quot;font-size: 14px;&quot;&gt;Vantagem&lt;br&gt;&lt;/font&gt;" style="text;html=1;strokeColor=none;fillColor=none;align=center;verticalAlign=middle;whiteSpace=wrap;rounded=0;" vertex="1" parent="WIyWlLk6GJQsqaUBKTNV-1">
          <mxGeometry x="490" y="201" width="60" height="30" as="geometry" />
        </mxCell>
        <mxCell id="re-14CfC1s3Y96KnfMVv-45" style="edgeStyle=orthogonalEdgeStyle;rounded=0;orthogonalLoop=1;jettySize=auto;html=1;entryX=1;entryY=0.5;entryDx=0;entryDy=0;endArrow=none;endFill=0;" edge="1" parent="WIyWlLk6GJQsqaUBKTNV-1" source="re-14CfC1s3Y96KnfMVv-43">
          <mxGeometry relative="1" as="geometry">
            <mxPoint x="220" y="226" as="sourcePoint" />
            <mxPoint x="390" y="216" as="targetPoint" />
          </mxGeometry>
        </mxCell>
        <mxCell id="re-14CfC1s3Y96KnfMVv-46" value="(1,n)" style="text;html=1;strokeColor=none;fillColor=none;align=center;verticalAlign=middle;whiteSpace=wrap;rounded=0;" vertex="1" parent="WIyWlLk6GJQsqaUBKTNV-1">
          <mxGeometry x="435" y="196" width="40" height="20" as="geometry" />
        </mxCell>
        <mxCell id="re-14CfC1s3Y96KnfMVv-47" style="edgeStyle=orthogonalEdgeStyle;rounded=0;orthogonalLoop=1;jettySize=auto;html=1;exitX=0.5;exitY=1;exitDx=0;exitDy=0;endArrow=none;endFill=0;" edge="1" parent="WIyWlLk6GJQsqaUBKTNV-1" source="re-14CfC1s3Y96KnfMVv-48" target="re-14CfC1s3Y96KnfMVv-51">
          <mxGeometry relative="1" as="geometry" />
        </mxCell>
        <mxCell id="re-14CfC1s3Y96KnfMVv-48" value="" style="rounded=0;whiteSpace=wrap;html=1;" vertex="1" parent="WIyWlLk6GJQsqaUBKTNV-1">
          <mxGeometry x="470" y="11" width="100" height="40" as="geometry" />
        </mxCell>
        <mxCell id="re-14CfC1s3Y96KnfMVv-49" value="&lt;font style=&quot;font-size: 14px;&quot;&gt;Empresa&lt;/font&gt;" style="text;html=1;strokeColor=none;fillColor=none;align=center;verticalAlign=middle;whiteSpace=wrap;rounded=0;" vertex="1" parent="WIyWlLk6GJQsqaUBKTNV-1">
          <mxGeometry x="490" y="16" width="60" height="30" as="geometry" />
        </mxCell>
        <mxCell id="re-14CfC1s3Y96KnfMVv-51" value="" style="rhombus;whiteSpace=wrap;html=1;" vertex="1" parent="WIyWlLk6GJQsqaUBKTNV-1">
          <mxGeometry x="475" y="101" width="90" height="50" as="geometry" />
        </mxCell>
        <mxCell id="re-14CfC1s3Y96KnfMVv-52" value="Oferece" style="text;html=1;strokeColor=none;fillColor=none;align=center;verticalAlign=middle;whiteSpace=wrap;rounded=0;" vertex="1" parent="WIyWlLk6GJQsqaUBKTNV-1">
          <mxGeometry x="490" y="111" width="60" height="30" as="geometry" />
        </mxCell>
        <mxCell id="re-14CfC1s3Y96KnfMVv-53" style="edgeStyle=orthogonalEdgeStyle;rounded=0;orthogonalLoop=1;jettySize=auto;html=1;endArrow=none;endFill=0;" edge="1" parent="WIyWlLk6GJQsqaUBKTNV-1">
          <mxGeometry relative="1" as="geometry">
            <mxPoint x="519.58" y="196" as="targetPoint" />
            <mxPoint x="520" y="151" as="sourcePoint" />
            <Array as="points">
              <mxPoint x="519.58" y="161" />
              <mxPoint x="519.58" y="161" />
            </Array>
          </mxGeometry>
        </mxCell>
        <mxCell id="re-14CfC1s3Y96KnfMVv-54" value="(1,n)" style="text;html=1;strokeColor=none;fillColor=none;align=center;verticalAlign=middle;whiteSpace=wrap;rounded=0;" vertex="1" parent="WIyWlLk6GJQsqaUBKTNV-1">
          <mxGeometry x="520" y="51" width="40" height="20" as="geometry" />
        </mxCell>
        <mxCell id="re-14CfC1s3Y96KnfMVv-55" value="(1,n)" style="text;html=1;strokeColor=none;fillColor=none;align=center;verticalAlign=middle;whiteSpace=wrap;rounded=0;" vertex="1" parent="WIyWlLk6GJQsqaUBKTNV-1">
          <mxGeometry x="520" y="176" width="40" height="20" as="geometry" />
        </mxCell>
        <mxCell id="re-14CfC1s3Y96KnfMVv-56" value="" style="ellipse;whiteSpace=wrap;html=1;" vertex="1" parent="WIyWlLk6GJQsqaUBKTNV-1">
          <mxGeometry x="90" y="255" width="60" height="30" as="geometry" />
        </mxCell>
        <mxCell id="re-14CfC1s3Y96KnfMVv-57" value="&lt;span style=&quot;font-size: 11px;&quot;&gt;&lt;u&gt;CPF&lt;/u&gt;&lt;/span&gt;" style="text;html=1;strokeColor=none;fillColor=none;align=center;verticalAlign=middle;whiteSpace=wrap;rounded=0;" vertex="1" parent="WIyWlLk6GJQsqaUBKTNV-1">
          <mxGeometry x="90" y="255" width="60" height="30" as="geometry" />
        </mxCell>
        <mxCell id="re-14CfC1s3Y96KnfMVv-59" value="" style="endArrow=none;html=1;rounded=0;entryX=0;entryY=0;entryDx=0;entryDy=0;exitX=0.968;exitY=0.699;exitDx=0;exitDy=0;exitPerimeter=0;" edge="1" parent="WIyWlLk6GJQsqaUBKTNV-1" source="re-14CfC1s3Y96KnfMVv-57" target="re-14CfC1s3Y96KnfMVv-0">
          <mxGeometry width="50" height="50" relative="1" as="geometry">
            <mxPoint x="125" y="345" as="sourcePoint" />
            <mxPoint x="175" y="295" as="targetPoint" />
          </mxGeometry>
        </mxCell>
        <mxCell id="re-14CfC1s3Y96KnfMVv-60" value="" style="ellipse;whiteSpace=wrap;html=1;" vertex="1" parent="WIyWlLk6GJQsqaUBKTNV-1">
          <mxGeometry x="155" y="235" width="60" height="30" as="geometry" />
        </mxCell>
        <mxCell id="re-14CfC1s3Y96KnfMVv-61" value="&lt;span style=&quot;font-size: 11px;&quot;&gt;Nome&lt;/span&gt;" style="text;html=1;strokeColor=none;fillColor=none;align=center;verticalAlign=middle;whiteSpace=wrap;rounded=0;" vertex="1" parent="WIyWlLk6GJQsqaUBKTNV-1">
          <mxGeometry x="155" y="235" width="60" height="30" as="geometry" />
        </mxCell>
        <mxCell id="re-14CfC1s3Y96KnfMVv-62" value="" style="endArrow=none;html=1;rounded=0;exitX=0.655;exitY=1.03;exitDx=0;exitDy=0;exitPerimeter=0;entryX=0.284;entryY=-0.015;entryDx=0;entryDy=0;entryPerimeter=0;" edge="1" parent="WIyWlLk6GJQsqaUBKTNV-1" source="re-14CfC1s3Y96KnfMVv-61" target="re-14CfC1s3Y96KnfMVv-0">
          <mxGeometry width="50" height="50" relative="1" as="geometry">
            <mxPoint x="185" y="325" as="sourcePoint" />
            <mxPoint x="200" y="300" as="targetPoint" />
          </mxGeometry>
        </mxCell>
        <mxCell id="re-14CfC1s3Y96KnfMVv-66" value="" style="ellipse;whiteSpace=wrap;html=1;" vertex="1" parent="WIyWlLk6GJQsqaUBKTNV-1">
          <mxGeometry x="80" y="295" width="60" height="30" as="geometry" />
        </mxCell>
        <mxCell id="re-14CfC1s3Y96KnfMVv-67" value="&lt;span style=&quot;font-size: 11px;&quot;&gt;Endereço&lt;/span&gt;" style="text;html=1;strokeColor=none;fillColor=none;align=center;verticalAlign=middle;whiteSpace=wrap;rounded=0;" vertex="1" parent="WIyWlLk6GJQsqaUBKTNV-1">
          <mxGeometry x="80" y="295" width="60" height="30" as="geometry" />
        </mxCell>
        <mxCell id="re-14CfC1s3Y96KnfMVv-68" value="" style="endArrow=none;html=1;rounded=0;entryX=-0.016;entryY=0.395;entryDx=0;entryDy=0;exitX=1;exitY=0.5;exitDx=0;exitDy=0;entryPerimeter=0;" edge="1" parent="WIyWlLk6GJQsqaUBKTNV-1" source="re-14CfC1s3Y96KnfMVv-67" target="re-14CfC1s3Y96KnfMVv-0">
          <mxGeometry width="50" height="50" relative="1" as="geometry">
            <mxPoint x="127" y="395" as="sourcePoint" />
            <mxPoint x="129" y="376" as="targetPoint" />
          </mxGeometry>
        </mxCell>
        <mxCell id="re-14CfC1s3Y96KnfMVv-69" value="" style="ellipse;whiteSpace=wrap;html=1;" vertex="1" parent="WIyWlLk6GJQsqaUBKTNV-1">
          <mxGeometry x="80" y="350" width="60" height="30" as="geometry" />
        </mxCell>
        <mxCell id="re-14CfC1s3Y96KnfMVv-70" value="&lt;span style=&quot;font-size: 11px;&quot;&gt;Email&lt;/span&gt;" style="text;html=1;strokeColor=none;fillColor=none;align=center;verticalAlign=middle;whiteSpace=wrap;rounded=0;" vertex="1" parent="WIyWlLk6GJQsqaUBKTNV-1">
          <mxGeometry x="80" y="350" width="60" height="30" as="geometry" />
        </mxCell>
        <mxCell id="re-14CfC1s3Y96KnfMVv-71" value="" style="endArrow=none;html=1;rounded=0;entryX=0;entryY=0.75;entryDx=0;entryDy=0;exitX=1;exitY=0.5;exitDx=0;exitDy=0;" edge="1" parent="WIyWlLk6GJQsqaUBKTNV-1" source="re-14CfC1s3Y96KnfMVv-70" target="re-14CfC1s3Y96KnfMVv-0">
          <mxGeometry width="50" height="50" relative="1" as="geometry">
            <mxPoint x="129" y="435" as="sourcePoint" />
            <mxPoint x="170" y="361" as="targetPoint" />
          </mxGeometry>
        </mxCell>
        <mxCell id="re-14CfC1s3Y96KnfMVv-72" value="" style="ellipse;whiteSpace=wrap;html=1;" vertex="1" parent="WIyWlLk6GJQsqaUBKTNV-1">
          <mxGeometry x="20" y="320" width="60" height="30" as="geometry" />
        </mxCell>
        <mxCell id="re-14CfC1s3Y96KnfMVv-73" value="&lt;span style=&quot;font-size: 11px;&quot;&gt;RG&lt;/span&gt;" style="text;html=1;strokeColor=none;fillColor=none;align=center;verticalAlign=middle;whiteSpace=wrap;rounded=0;" vertex="1" parent="WIyWlLk6GJQsqaUBKTNV-1">
          <mxGeometry x="20" y="320" width="60" height="30" as="geometry" />
        </mxCell>
        <mxCell id="re-14CfC1s3Y96KnfMVv-74" value="" style="endArrow=none;html=1;rounded=0;entryX=-0.013;entryY=0.638;entryDx=0;entryDy=0;exitX=1;exitY=0.5;exitDx=0;exitDy=0;entryPerimeter=0;" edge="1" parent="WIyWlLk6GJQsqaUBKTNV-1" source="re-14CfC1s3Y96KnfMVv-73" target="re-14CfC1s3Y96KnfMVv-0">
          <mxGeometry width="50" height="50" relative="1" as="geometry">
            <mxPoint x="67" y="420" as="sourcePoint" />
            <mxPoint x="108" y="346" as="targetPoint" />
          </mxGeometry>
        </mxCell>
        <mxCell id="re-14CfC1s3Y96KnfMVv-79" value="" style="ellipse;whiteSpace=wrap;html=1;" vertex="1" parent="WIyWlLk6GJQsqaUBKTNV-1">
          <mxGeometry x="140" y="610" width="60" height="30" as="geometry" />
        </mxCell>
        <mxCell id="re-14CfC1s3Y96KnfMVv-80" value="&lt;span style=&quot;font-size: 11px;&quot;&gt;&lt;u&gt;CPF&lt;/u&gt;&lt;/span&gt;" style="text;html=1;strokeColor=none;fillColor=none;align=center;verticalAlign=middle;whiteSpace=wrap;rounded=0;" vertex="1" parent="WIyWlLk6GJQsqaUBKTNV-1">
          <mxGeometry x="140" y="610" width="60" height="30" as="geometry" />
        </mxCell>
        <mxCell id="re-14CfC1s3Y96KnfMVv-81" value="" style="endArrow=none;html=1;rounded=0;entryX=0.287;entryY=0.983;entryDx=0;entryDy=0;exitX=0.5;exitY=0;exitDx=0;exitDy=0;entryPerimeter=0;" edge="1" parent="WIyWlLk6GJQsqaUBKTNV-1" source="re-14CfC1s3Y96KnfMVv-80" target="re-14CfC1s3Y96KnfMVv-21">
          <mxGeometry width="50" height="50" relative="1" as="geometry">
            <mxPoint x="185" y="710" as="sourcePoint" />
            <mxPoint x="230" y="670" as="targetPoint" />
          </mxGeometry>
        </mxCell>
        <mxCell id="re-14CfC1s3Y96KnfMVv-82" value="" style="ellipse;whiteSpace=wrap;html=1;" vertex="1" parent="WIyWlLk6GJQsqaUBKTNV-1">
          <mxGeometry x="205" y="599.44" width="60" height="30" as="geometry" />
        </mxCell>
        <mxCell id="re-14CfC1s3Y96KnfMVv-83" value="&lt;span style=&quot;font-size: 11px;&quot;&gt;Nome&lt;/span&gt;" style="text;html=1;strokeColor=none;fillColor=none;align=center;verticalAlign=middle;whiteSpace=wrap;rounded=0;" vertex="1" parent="WIyWlLk6GJQsqaUBKTNV-1">
          <mxGeometry x="205" y="599.44" width="60" height="30" as="geometry" />
        </mxCell>
        <mxCell id="re-14CfC1s3Y96KnfMVv-84" value="" style="endArrow=none;html=1;rounded=0;entryX=0.694;entryY=1.014;entryDx=0;entryDy=0;entryPerimeter=0;exitX=0.5;exitY=0;exitDx=0;exitDy=0;" edge="1" parent="WIyWlLk6GJQsqaUBKTNV-1" source="re-14CfC1s3Y96KnfMVv-83">
          <mxGeometry width="50" height="50" relative="1" as="geometry">
            <mxPoint x="244" y="630.44" as="sourcePoint" />
            <mxPoint x="234.39999999999998" y="575.0000000000001" as="targetPoint" />
          </mxGeometry>
        </mxCell>
        <mxCell id="re-14CfC1s3Y96KnfMVv-85" value="" style="ellipse;whiteSpace=wrap;html=1;" vertex="1" parent="WIyWlLk6GJQsqaUBKTNV-1">
          <mxGeometry x="150" y="365" width="60" height="30" as="geometry" />
        </mxCell>
        <mxCell id="re-14CfC1s3Y96KnfMVv-86" value="&lt;span style=&quot;font-size: 11px;&quot;&gt;Curso&lt;/span&gt;" style="text;html=1;strokeColor=none;fillColor=none;align=center;verticalAlign=middle;whiteSpace=wrap;rounded=0;" vertex="1" parent="WIyWlLk6GJQsqaUBKTNV-1">
          <mxGeometry x="150" y="365" width="60" height="30" as="geometry" />
        </mxCell>
        <mxCell id="re-14CfC1s3Y96KnfMVv-87" value="" style="endArrow=none;html=1;rounded=0;entryX=0.25;entryY=1;entryDx=0;entryDy=0;exitX=0.671;exitY=0.075;exitDx=0;exitDy=0;exitPerimeter=0;" edge="1" parent="WIyWlLk6GJQsqaUBKTNV-1" source="re-14CfC1s3Y96KnfMVv-86" target="re-14CfC1s3Y96KnfMVv-0">
          <mxGeometry width="50" height="50" relative="1" as="geometry">
            <mxPoint x="179" y="465" as="sourcePoint" />
            <mxPoint x="220" y="365" as="targetPoint" />
          </mxGeometry>
        </mxCell>
        <mxCell id="re-14CfC1s3Y96KnfMVv-90" value="" style="ellipse;whiteSpace=wrap;html=1;" vertex="1" parent="WIyWlLk6GJQsqaUBKTNV-1">
          <mxGeometry x="660" y="260" width="60" height="30" as="geometry" />
        </mxCell>
        <mxCell id="re-14CfC1s3Y96KnfMVv-91" value="&lt;span style=&quot;font-size: 11px;&quot;&gt;&lt;u&gt;CNPJ&lt;/u&gt;&lt;/span&gt;" style="text;html=1;strokeColor=none;fillColor=none;align=center;verticalAlign=middle;whiteSpace=wrap;rounded=0;" vertex="1" parent="WIyWlLk6GJQsqaUBKTNV-1">
          <mxGeometry x="660" y="260" width="60" height="30" as="geometry" />
        </mxCell>
        <mxCell id="re-14CfC1s3Y96KnfMVv-92" value="" style="endArrow=none;html=1;rounded=0;entryX=0.976;entryY=0.025;entryDx=0;entryDy=0;entryPerimeter=0;" edge="1" parent="WIyWlLk6GJQsqaUBKTNV-1" target="re-14CfC1s3Y96KnfMVv-2">
          <mxGeometry width="50" height="50" relative="1" as="geometry">
            <mxPoint x="660" y="280" as="sourcePoint" />
            <mxPoint x="740" y="310" as="targetPoint" />
          </mxGeometry>
        </mxCell>
        <mxCell id="re-14CfC1s3Y96KnfMVv-93" value="" style="ellipse;whiteSpace=wrap;html=1;" vertex="1" parent="WIyWlLk6GJQsqaUBKTNV-1">
          <mxGeometry x="676" y="300" width="84" height="45" as="geometry" />
        </mxCell>
        <mxCell id="re-14CfC1s3Y96KnfMVv-95" value="" style="endArrow=none;html=1;rounded=0;entryX=1.007;entryY=0.4;entryDx=0;entryDy=0;entryPerimeter=0;" edge="1" parent="WIyWlLk6GJQsqaUBKTNV-1" target="re-14CfC1s3Y96KnfMVv-2">
          <mxGeometry width="50" height="50" relative="1" as="geometry">
            <mxPoint x="676" y="325" as="sourcePoint" />
            <mxPoint x="644" y="351" as="targetPoint" />
          </mxGeometry>
        </mxCell>
        <mxCell id="re-14CfC1s3Y96KnfMVv-96" value="" style="ellipse;whiteSpace=wrap;html=1;" vertex="1" parent="WIyWlLk6GJQsqaUBKTNV-1">
          <mxGeometry x="681" y="302.5" width="74" height="40" as="geometry" />
        </mxCell>
        <mxCell id="re-14CfC1s3Y96KnfMVv-94" value="&lt;span style=&quot;font-size: 11px;&quot;&gt;Cursos&amp;nbsp;&lt;br&gt;disponíveis&lt;br&gt;&lt;/span&gt;" style="text;html=1;strokeColor=none;fillColor=none;align=center;verticalAlign=middle;whiteSpace=wrap;rounded=0;" vertex="1" parent="WIyWlLk6GJQsqaUBKTNV-1">
          <mxGeometry x="686" y="302.5" width="64" height="35" as="geometry" />
        </mxCell>
        <mxCell id="re-14CfC1s3Y96KnfMVv-97" value="" style="ellipse;whiteSpace=wrap;html=1;" vertex="1" parent="WIyWlLk6GJQsqaUBKTNV-1">
          <mxGeometry x="80" y="579" width="60" height="30" as="geometry" />
        </mxCell>
        <mxCell id="re-14CfC1s3Y96KnfMVv-98" value="&lt;span style=&quot;font-size: 11px;&quot;&gt;Saldo&lt;/span&gt;" style="text;html=1;strokeColor=none;fillColor=none;align=center;verticalAlign=middle;whiteSpace=wrap;rounded=0;" vertex="1" parent="WIyWlLk6GJQsqaUBKTNV-1">
          <mxGeometry x="80" y="579" width="60" height="30" as="geometry" />
        </mxCell>
        <mxCell id="re-14CfC1s3Y96KnfMVv-99" value="" style="endArrow=none;html=1;rounded=0;entryX=0.016;entryY=0.585;entryDx=0;entryDy=0;entryPerimeter=0;exitX=0.75;exitY=0;exitDx=0;exitDy=0;" edge="1" parent="WIyWlLk6GJQsqaUBKTNV-1" source="re-14CfC1s3Y96KnfMVv-98" target="re-14CfC1s3Y96KnfMVv-21">
          <mxGeometry width="50" height="50" relative="1" as="geometry">
            <mxPoint x="119" y="610" as="sourcePoint" />
            <mxPoint x="109" y="555" as="targetPoint" />
          </mxGeometry>
        </mxCell>
        <mxCell id="re-14CfC1s3Y96KnfMVv-100" value="" style="ellipse;whiteSpace=wrap;html=1;" vertex="1" parent="WIyWlLk6GJQsqaUBKTNV-1">
          <mxGeometry x="90" y="221" width="60" height="30" as="geometry" />
        </mxCell>
        <mxCell id="re-14CfC1s3Y96KnfMVv-101" value="&lt;span style=&quot;font-size: 11px;&quot;&gt;Saldo&lt;/span&gt;" style="text;html=1;strokeColor=none;fillColor=none;align=center;verticalAlign=middle;whiteSpace=wrap;rounded=0;" vertex="1" parent="WIyWlLk6GJQsqaUBKTNV-1">
          <mxGeometry x="90" y="221" width="60" height="30" as="geometry" />
        </mxCell>
        <mxCell id="re-14CfC1s3Y96KnfMVv-102" value="" style="endArrow=none;html=1;rounded=0;entryX=0.833;entryY=0.927;entryDx=0;entryDy=0;entryPerimeter=0;exitX=0.148;exitY=0.035;exitDx=0;exitDy=0;exitPerimeter=0;" edge="1" parent="WIyWlLk6GJQsqaUBKTNV-1" source="re-14CfC1s3Y96KnfMVv-0" target="re-14CfC1s3Y96KnfMVv-101">
          <mxGeometry width="50" height="50" relative="1" as="geometry">
            <mxPoint x="140" y="221" as="sourcePoint" />
            <mxPoint x="187" y="200" as="targetPoint" />
          </mxGeometry>
        </mxCell>
        <mxCell id="re-14CfC1s3Y96KnfMVv-103" value="" style="endArrow=none;html=1;rounded=0;" edge="1" parent="WIyWlLk6GJQsqaUBKTNV-1">
          <mxGeometry width="50" height="50" relative="1" as="geometry">
            <mxPoint x="100" y="440" as="sourcePoint" />
            <mxPoint x="175" y="440" as="targetPoint" />
          </mxGeometry>
        </mxCell>
        <mxCell id="re-14CfC1s3Y96KnfMVv-104" value="" style="ellipse;whiteSpace=wrap;html=1;" vertex="1" parent="WIyWlLk6GJQsqaUBKTNV-1">
          <mxGeometry x="40" y="425" width="60" height="30" as="geometry" />
        </mxCell>
        <mxCell id="re-14CfC1s3Y96KnfMVv-105" value="&lt;span style=&quot;font-size: 11px;&quot;&gt;Descrição&lt;/span&gt;" style="text;html=1;strokeColor=none;fillColor=none;align=center;verticalAlign=middle;whiteSpace=wrap;rounded=0;" vertex="1" parent="WIyWlLk6GJQsqaUBKTNV-1">
          <mxGeometry x="40" y="425" width="60" height="30" as="geometry" />
        </mxCell>
        <mxCell id="re-14CfC1s3Y96KnfMVv-106" value="" style="ellipse;whiteSpace=wrap;html=1;" vertex="1" parent="WIyWlLk6GJQsqaUBKTNV-1">
          <mxGeometry x="40" y="480" width="60" height="30" as="geometry" />
        </mxCell>
        <mxCell id="re-14CfC1s3Y96KnfMVv-107" value="&lt;span style=&quot;font-size: 11px;&quot;&gt;Valor&lt;/span&gt;" style="text;html=1;strokeColor=none;fillColor=none;align=center;verticalAlign=middle;whiteSpace=wrap;rounded=0;" vertex="1" parent="WIyWlLk6GJQsqaUBKTNV-1">
          <mxGeometry x="40" y="480" width="60" height="30" as="geometry" />
        </mxCell>
        <mxCell id="re-14CfC1s3Y96KnfMVv-108" value="" style="endArrow=none;html=1;rounded=0;exitX=1;exitY=0.5;exitDx=0;exitDy=0;" edge="1" parent="WIyWlLk6GJQsqaUBKTNV-1" source="re-14CfC1s3Y96KnfMVv-107">
          <mxGeometry width="50" height="50" relative="1" as="geometry">
            <mxPoint x="110" y="520" as="sourcePoint" />
            <mxPoint x="140" y="440" as="targetPoint" />
            <Array as="points">
              <mxPoint x="140" y="495" />
            </Array>
          </mxGeometry>
        </mxCell>
        <mxCell id="re-14CfC1s3Y96KnfMVv-109" value="" style="ellipse;whiteSpace=wrap;html=1;" vertex="1" parent="WIyWlLk6GJQsqaUBKTNV-1">
          <mxGeometry x="590" y="151" width="60" height="30" as="geometry" />
        </mxCell>
        <mxCell id="re-14CfC1s3Y96KnfMVv-110" value="&lt;span style=&quot;font-size: 11px;&quot;&gt;Descrição&lt;/span&gt;" style="text;html=1;strokeColor=none;fillColor=none;align=center;verticalAlign=middle;whiteSpace=wrap;rounded=0;" vertex="1" parent="WIyWlLk6GJQsqaUBKTNV-1">
          <mxGeometry x="590" y="151" width="60" height="30" as="geometry" />
        </mxCell>
        <mxCell id="re-14CfC1s3Y96KnfMVv-111" value="" style="endArrow=none;html=1;rounded=0;entryX=0.025;entryY=0.654;entryDx=0;entryDy=0;entryPerimeter=0;exitX=1;exitY=0;exitDx=0;exitDy=0;" edge="1" parent="WIyWlLk6GJQsqaUBKTNV-1" source="re-14CfC1s3Y96KnfMVv-43" target="re-14CfC1s3Y96KnfMVv-110">
          <mxGeometry width="50" height="50" relative="1" as="geometry">
            <mxPoint x="540" y="281" as="sourcePoint" />
            <mxPoint x="590" y="231" as="targetPoint" />
          </mxGeometry>
        </mxCell>
        <mxCell id="re-14CfC1s3Y96KnfMVv-112" value="" style="ellipse;whiteSpace=wrap;html=1;" vertex="1" parent="WIyWlLk6GJQsqaUBKTNV-1">
          <mxGeometry x="600" y="186" width="60" height="30" as="geometry" />
        </mxCell>
        <mxCell id="re-14CfC1s3Y96KnfMVv-113" value="&lt;span style=&quot;font-size: 11px;&quot;&gt;Custo&lt;/span&gt;" style="text;html=1;strokeColor=none;fillColor=none;align=center;verticalAlign=middle;whiteSpace=wrap;rounded=0;" vertex="1" parent="WIyWlLk6GJQsqaUBKTNV-1">
          <mxGeometry x="600" y="186" width="60" height="30" as="geometry" />
        </mxCell>
        <mxCell id="re-14CfC1s3Y96KnfMVv-114" value="" style="endArrow=none;html=1;rounded=0;entryX=0.025;entryY=0.654;entryDx=0;entryDy=0;entryPerimeter=0;exitX=1;exitY=0.5;exitDx=0;exitDy=0;" edge="1" parent="WIyWlLk6GJQsqaUBKTNV-1" target="re-14CfC1s3Y96KnfMVv-113" source="re-14CfC1s3Y96KnfMVv-43">
          <mxGeometry width="50" height="50" relative="1" as="geometry">
            <mxPoint x="580" y="231" as="sourcePoint" />
            <mxPoint x="600" y="266" as="targetPoint" />
          </mxGeometry>
        </mxCell>
        <mxCell id="re-14CfC1s3Y96KnfMVv-115" value="" style="ellipse;whiteSpace=wrap;html=1;" vertex="1" parent="WIyWlLk6GJQsqaUBKTNV-1">
          <mxGeometry x="600" y="221" width="60" height="30" as="geometry" />
        </mxCell>
        <mxCell id="re-14CfC1s3Y96KnfMVv-116" value="&lt;span style=&quot;font-size: 11px;&quot;&gt;Foto&lt;/span&gt;" style="text;html=1;strokeColor=none;fillColor=none;align=center;verticalAlign=middle;whiteSpace=wrap;rounded=0;" vertex="1" parent="WIyWlLk6GJQsqaUBKTNV-1">
          <mxGeometry x="600" y="221" width="60" height="30" as="geometry" />
        </mxCell>
        <mxCell id="re-14CfC1s3Y96KnfMVv-117" value="" style="endArrow=none;html=1;rounded=0;entryX=0.025;entryY=0.654;entryDx=0;entryDy=0;entryPerimeter=0;exitX=1.005;exitY=0.889;exitDx=0;exitDy=0;exitPerimeter=0;" edge="1" parent="WIyWlLk6GJQsqaUBKTNV-1" target="re-14CfC1s3Y96KnfMVv-116" source="re-14CfC1s3Y96KnfMVv-43">
          <mxGeometry width="50" height="50" relative="1" as="geometry">
            <mxPoint x="580" y="266" as="sourcePoint" />
            <mxPoint x="600" y="301" as="targetPoint" />
          </mxGeometry>
        </mxCell>
        <mxCell id="re-14CfC1s3Y96KnfMVv-119" value="" style="ellipse;whiteSpace=wrap;html=1;" vertex="1" parent="WIyWlLk6GJQsqaUBKTNV-1">
          <mxGeometry x="354" y="31" width="60" height="30" as="geometry" />
        </mxCell>
        <mxCell id="re-14CfC1s3Y96KnfMVv-120" value="&lt;span style=&quot;font-size: 11px;&quot;&gt;&lt;u&gt;CNPJ&lt;/u&gt;&lt;/span&gt;" style="text;html=1;strokeColor=none;fillColor=none;align=center;verticalAlign=middle;whiteSpace=wrap;rounded=0;" vertex="1" parent="WIyWlLk6GJQsqaUBKTNV-1">
          <mxGeometry x="354" y="31" width="60" height="30" as="geometry" />
        </mxCell>
        <mxCell id="re-14CfC1s3Y96KnfMVv-121" value="" style="endArrow=none;html=1;rounded=0;entryX=0;entryY=0.75;entryDx=0;entryDy=0;exitX=1;exitY=0.5;exitDx=0;exitDy=0;" edge="1" parent="WIyWlLk6GJQsqaUBKTNV-1" source="re-14CfC1s3Y96KnfMVv-120" target="re-14CfC1s3Y96KnfMVv-48">
          <mxGeometry width="50" height="50" relative="1" as="geometry">
            <mxPoint x="372" y="45" as="sourcePoint" />
            <mxPoint x="340" y="71" as="targetPoint" />
          </mxGeometry>
        </mxCell>
        <mxCell id="re-14CfC1s3Y96KnfMVv-122" value="" style="ellipse;whiteSpace=wrap;html=1;" vertex="1" parent="WIyWlLk6GJQsqaUBKTNV-1">
          <mxGeometry x="270" y="594.44" width="60" height="30" as="geometry" />
        </mxCell>
        <mxCell id="re-14CfC1s3Y96KnfMVv-123" value="&lt;span style=&quot;font-size: 11px;&quot;&gt;Instituição&lt;/span&gt;" style="text;html=1;strokeColor=none;fillColor=none;align=center;verticalAlign=middle;whiteSpace=wrap;rounded=0;" vertex="1" parent="WIyWlLk6GJQsqaUBKTNV-1">
          <mxGeometry x="270" y="594.44" width="60" height="30" as="geometry" />
        </mxCell>
        <mxCell id="re-14CfC1s3Y96KnfMVv-124" value="" style="endArrow=none;html=1;rounded=0;exitX=0.5;exitY=0;exitDx=0;exitDy=0;" edge="1" parent="WIyWlLk6GJQsqaUBKTNV-1" source="re-14CfC1s3Y96KnfMVv-123" target="re-14CfC1s3Y96KnfMVv-21">
          <mxGeometry width="50" height="50" relative="1" as="geometry">
            <mxPoint x="309" y="625.44" as="sourcePoint" />
            <mxPoint x="299.4" y="570.0000000000001" as="targetPoint" />
          </mxGeometry>
        </mxCell>
      </root>
    </mxGraphModel>
  </diagram>
</mxfile>
